<?xml version="1.0" encoding="UTF-8"?>
<svg width="210px" height="30px" viewBox="0 0 210 30" version="1.1" xmlns="http://www.w3.org/2000/svg" xmlns:xlink="http://www.w3.org/1999/xlink">
    <title>2F5E04D6-CCB1-4748-B5B5-47087FABB6C8</title>
    <g id="Large" stroke="none" stroke-width="1" fill="none" fill-rule="evenodd">
        <g id="navigation-membership" transform="translate(-36.000000, -51.000000)" fill="#006B6E" fill-rule="nonzero">
            <g id="logo/cathay-en" transform="translate(36.000000, 51.000000)">
                <g id="Cathay-Cargo_Master-Logo_Horizontal-Green-English" transform="translate(0.000000, 0.000000)">
                    <g id="Group">
                        <path d="M24.7093311,19.9511466 C24.5840548,19.4938084 23.2477737,19.6910092 22.1495177,19.5903109 C21.1473069,19.4980041 19.8653123,19.3175863 18.3244132,18.7805286 C16.8837352,18.277037 15.4848159,17.6980216 14.2696354,17.0392867 C14.2696354,17.0392867 13.7768817,16.7791494 13.7225953,16.7497791 C13.6223742,16.6868426 13.5430325,16.644885 13.4428115,16.5819485 C13.3843492,16.5483824 13.2924798,16.4938375 13.2256658,16.4644672 C13.1421482,16.430901 13.0836859,16.3805519 13.0085201,16.3385942 C12.9333543,16.2924409 12.8289573,16.2420917 12.7537915,16.1959383 C12.6410428,16.1246103 12.5700529,16.0742612 12.4656559,15.9945416 C12.3988419,15.9483882 12.3654349,15.9316052 12.2777414,15.881256 C12.223455,15.8476899 12.1315857,15.7973408 12.0814751,15.7679704 C11.9854299,15.705034 11.9227918,15.650489 11.8225707,15.5791611 C11.7641084,15.5372034 11.7181737,15.5120289 11.6471838,15.4658755 C11.5761939,15.4239178 11.5093798,15.3651771 11.4467416,15.3190237 C11.4133346,15.2938492 11.3632241,15.2644788 11.329817,15.2309127 C11.2588271,15.1637805 11.1878372,15.100844 11.1126714,15.0379076 C11.0416814,14.9875584 10.9790433,14.924622 10.9080533,14.8742728 C10.8662945,14.8407067 10.7911287,14.7777703 10.7493699,14.7483999 C10.6407971,14.6686804 10.5698072,14.6099397 10.4612343,14.5302202 C10.3902444,14.479871 10.3317821,14.4085431 10.2607922,14.3539981 C10.1814505,14.2952575 10.1104606,14.2281252 10.026943,14.1693846 C9.97265658,14.1316227 9.91419429,14.0854693 9.8724355,14.0435116 C9.81814909,13.9805752 9.76803855,13.9386176 9.71375213,13.8756811 C9.67616922,13.8295277 9.59682754,13.7833743 9.55089288,13.7372209 C9.48407882,13.6491099 9.38803362,13.5609989 9.2961643,13.4896709 C9.24605376,13.4393217 9.22517437,13.4183429 9.20847085,13.3889726 C9.19176734,13.3679937 9.17506383,13.3428192 9.12912917,13.2966658 C9.08737038,13.2505124 9.07066687,13.2379251 9.05396336,13.221142 C9.03725984,13.204359 9.01220457,13.1833801 8.95374228,13.1246395 C8.93286289,13.1036606 8.90363174,13.061703 8.87022471,13.0197454 C8.84099356,12.9819835 8.81593829,12.9442216 8.79923478,12.9274386 C8.74494836,12.8686979 8.71154134,12.830936 8.67395843,12.7931741 C8.64472728,12.7638038 8.61967201,12.7344335 8.58208911,12.6966716 C8.56120972,12.6756928 8.5445062,12.6463224 8.52780269,12.6211478 C8.51109918,12.5959733 8.49439566,12.5707987 8.47351627,12.5498199 C8.44010925,12.512058 8.41922986,12.5246453 8.4108781,12.528841 C8.38999871,12.5414283 8.38582283,12.5791902 8.40670222,12.6253436 C8.43175749,12.6756928 8.47351627,12.7386292 8.49857154,12.7721953 C8.50274742,12.7805869 8.5069233,12.7847826 8.51109918,12.7889784 C8.52362681,12.8057614 8.53197857,12.8225445 8.54033033,12.8393275 C8.55703384,12.8645021 8.56956147,12.8938725 8.58626499,12.9148513 C8.62802377,12.9693962 8.66978255,13.0155496 8.71154134,13.061703 C8.72824485,13.0784861 8.74077248,13.0910733 8.75330012,13.1078564 C8.78253127,13.1372267 8.80341066,13.1707929 8.82846593,13.204359 C8.8535212,13.2379251 8.87857647,13.2756869 8.90780762,13.309253 C8.92451113,13.3260361 8.93286289,13.3428192 8.94539052,13.3596022 C8.95791816,13.3763853 8.97462167,13.3973641 8.99132518,13.4141471 C9.01638045,13.435126 9.04143572,13.4644963 9.06649099,13.4896709 C9.10824978,13.5316285 9.15000856,13.5735861 9.18759146,13.6071523 C9.21682261,13.6323268 9.25022964,13.6658929 9.28363666,13.699459 C9.36715423,13.7959616 9.45484767,13.8966599 9.52583761,13.9889667 C9.56759639,14.0435116 9.6427622,14.0812735 9.69287274,14.1190354 C9.74298328,14.1567973 9.78474206,14.2281252 9.82650084,14.2784744 C9.85990787,14.3162363 9.92672192,14.3791727 9.96012895,14.4169346 C10.0436465,14.5218287 10.0979329,14.5805694 10.2065058,14.6602889 C10.2733198,14.710638 10.3234304,14.7525957 10.3735409,14.8155321 C10.402772,14.853294 10.4946414,14.9456008 10.5322243,14.9875584 C10.6199177,15.100844 10.6616765,15.2057381 10.6491489,15.2099339 C10.5865107,15.2267169 10.440355,15.0966483 10.3526615,15.0379076 C10.2816716,14.9875584 10.2691439,14.9707754 10.2023299,14.9204262 C10.1856264,14.9078389 10.0812294,14.8323152 10.0436465,14.781966 C10.0144154,14.7567914 9.93507368,14.6686804 9.91001841,14.6351143 C9.78474206,14.4756753 9.74298328,14.4672838 9.60517929,14.3288236 C9.50078234,14.2281252 9.37550599,14.1400142 9.27528491,14.0477074 C9.24605376,14.0141413 9.21682261,13.984771 9.18759146,13.9512049 C9.15418444,13.9176387 9.11242565,13.8882684 9.08319451,13.8547023 C9.03725984,13.7959616 8.97462167,13.6784802 8.91615937,13.6365226 C8.85769708,13.5903692 8.81176242,13.5484116 8.75330012,13.5064539 C8.73242073,13.4896709 8.71154134,13.4644963 8.69066194,13.4477132 C8.6614308,13.4267344 8.62802377,13.4015598 8.60714438,13.3763853 C8.54033033,13.2882742 8.46934039,13.2001632 8.40252634,13.1120522 C8.36911932,13.0700945 8.32736053,13.0365284 8.29395351,12.990375 C8.22713945,12.8980682 8.17285304,12.8015657 8.1018631,12.7092589 C8.0058179,12.583386 7.8721898,12.4952749 7.78032047,12.369402 C7.68845115,12.2393334 7.62998886,12.0882859 7.54229541,11.9540215 C7.50471251,11.8952808 7.44207433,11.8533231 7.40449143,11.7987782 C7.37943616,11.7652121 7.36690852,11.7274502 7.34185325,11.6938841 C7.29591859,11.6225561 7.2374563,11.5512282 7.19152163,11.4799002 C7.12888346,11.3875934 7.08712468,11.2868951 7.0244865,11.1903925 C7.01195887,11.1736095 6.99107948,11.110673 6.95349657,11.0645196 C6.91591367,11.0183662 6.88250664,10.9596255 6.84074786,10.8924933 C6.79898907,10.8253611 6.77810968,10.7792077 6.74470266,10.7288585 C6.71547151,10.6827051 6.69459212,10.6365517 6.67371272,10.6029856 C6.65283333,10.5694195 6.60689867,10.5064831 6.59437104,10.4813085 C6.53590874,10.3931975 6.52338111,10.3512398 6.46074293,10.2673246 C6.42316003,10.2169754 6.38557712,10.1750178 6.3521701,10.1876051 C6.32711483,10.2043881 6.33546658,10.2379542 6.33964246,10.258933 C6.36469773,10.3344568 6.36469773,10.3176737 6.39392888,10.3722186 C6.43986354,10.4603297 6.45656705,10.5022873 6.51085347,10.577811 C6.53590874,10.6155729 6.57766752,10.703684 6.60689867,10.7540331 C6.6403057,10.8001865 6.67371272,10.8589272 6.69459212,10.8966891 C6.71964739,10.9386467 6.75305441,11.0477366 6.79063732,11.09389 C6.81569259,11.1274561 6.85327549,11.1945883 6.87833076,11.2449374 C6.9284413,11.34144 6.99107948,11.4211595 7.04119002,11.500879 C7.07459704,11.5638155 7.10800407,11.6267519 7.14558697,11.6938841 C7.21240103,11.7945824 7.29174271,11.891085 7.36273264,11.9959791 C7.40449143,12.0715028 7.44207433,12.1428308 7.48383312,12.2183546 C7.52141602,12.2770952 7.57987832,12.3274444 7.61746122,12.3903809 C7.66339588,12.4659046 7.69262703,12.5456241 7.73856169,12.6169521 C7.7761446,12.6756928 7.82625514,12.7302377 7.86383804,12.7847826 C7.92647622,12.8812852 7.98493851,12.9777877 8.05592844,13.0700945 C8.09351135,13.1204437 8.14362189,13.1665971 8.18120479,13.2169463 C8.23131533,13.2882742 8.27307411,13.3721895 8.32736053,13.4309302 C8.38999871,13.4896709 8.4108781,13.5274327 8.45681276,13.5861734 C8.53197857,13.6742845 8.71571721,13.9386176 8.68648607,13.9428133 C8.57791323,13.9595964 8.36911932,13.7162421 8.27724999,13.6323268 C8.20626006,13.5651946 8.13109425,13.5148455 8.08515959,13.451909 C8.01416966,13.3554064 7.96405912,13.2505124 7.89306919,13.1582056 C7.86801392,13.1246395 7.83043101,13.0994649 7.80537574,13.0658988 C7.75526521,13.0029623 7.71350642,12.9358301 7.65504413,12.8812852 C7.62998886,12.8561106 7.60493359,12.8393275 7.58405419,12.814153 C7.49636075,12.7008673 7.42537082,12.5875817 7.34185325,12.4701004 C7.30427035,12.423947 7.26251157,12.3819893 7.22492866,12.3358359 C7.19987339,12.3022698 7.18316988,12.2603122 7.15811461,12.2225503 C7.14558697,12.1680054 7.09965231,12.1176562 7.06624529,12.0673071 C7.04119002,12.0295452 7.0244865,11.9917833 6.99943123,11.9498257 C6.95349657,11.8826935 6.89503427,11.819757 6.84909961,11.7526248 C6.81151671,11.6980799 6.80316495,11.6225561 6.76558205,11.5638155 C6.67371272,11.4211595 6.56931577,11.2743078 6.47744644,11.1274561 C6.45239117,11.0896942 6.44403942,11.0477366 6.42316003,11.0099747 C6.34799422,10.8924933 6.27700429,10.7666204 6.20601435,10.649139 C6.17678321,10.6071814 6.16843145,10.5568322 6.1392003,10.5148746 C6.10579328,10.4603297 6.05150686,10.4225678 6.01809983,10.3680229 C5.99304456,10.330261 5.9846928,10.2841076 5.96381341,10.2379542 C5.93458227,10.1792135 5.89699936,10.1162771 5.86776821,10.0617321 C5.84688882,10.028166 5.83853706,9.99040417 5.81765767,9.95683806 C5.72996423,9.81837787 5.65479842,9.66733038 5.57963261,9.51208714 C5.5420497,9.43236763 5.48358741,9.35684389 5.4460045,9.27712438 C5.40424572,9.18901335 5.36248694,9.09670656 5.32072815,9.00859552 C5.29984876,8.94985484 5.27896937,8.89111415 5.25808998,8.83237346 C5.21215532,8.74006666 5.14951714,8.66034716 5.10358248,8.5638446 C5.07435134,8.49671239 5.05764782,8.4379717 5.03259255,8.38342677 C5.01588904,8.34986066 4.98248201,8.32049032 4.96160262,8.33727337 C4.93654735,8.34986066 4.93654735,8.38342677 4.94907499,8.43377593 C4.97830613,8.53027849 5.03259255,8.64356411 5.05764782,8.70230479 C5.10775836,8.81559041 5.13281363,8.92887602 5.18292417,9.04216163 C5.21215532,9.10509808 5.24973822,9.16383877 5.27896937,9.22677522 C5.32907991,9.33166931 5.37501457,9.44075916 5.42512511,9.54565324 C5.45435626,9.60439393 5.47523565,9.66313462 5.50864268,9.71767955 C5.52534619,9.74704989 5.55040146,9.780616 5.5629291,9.8141821 C5.59633612,9.88551008 5.60468788,9.96103382 5.63809491,10.0323618 C5.67150193,10.1036898 5.72578835,10.1624305 5.75919538,10.2337584 C5.93040639,10.5945941 6.1016174,10.9428425 6.30623543,11.2659163 C6.36469773,11.3540273 6.39392888,11.4631171 6.45239117,11.5554239 C6.51085347,11.6477307 6.59437104,11.7190587 6.65283333,11.8113655 C6.70294387,11.8868892 6.71547151,11.9917833 6.75723029,12.0715028 C6.82404434,12.19318 6.91173779,12.2938783 6.98272772,12.4113597 C7.00360711,12.44073 7.00778299,12.4784919 7.02866238,12.512058 C7.05371765,12.5582114 7.09130056,12.600169 7.1205317,12.6421267 C7.15811461,12.7008673 7.17481812,12.7679996 7.2165769,12.8267403 C7.25833569,12.8854809 7.32097386,12.9358301 7.36690852,12.9945708 C7.42119494,13.0700945 7.45877785,13.1540098 7.51306426,13.2295335 C7.55064717,13.2798827 7.61328534,13.3176446 7.65086825,13.3679937 C7.71350642,13.451909 7.92647622,13.7372209 7.98911439,13.8169404 C8.08515959,13.9386176 8.2563706,14.1190354 8.33571229,14.2784744 C8.36076756,14.3288236 8.44428512,14.4463049 8.42758161,14.4672838 C8.38164695,14.5008499 8.16867716,14.2658871 8.13109425,14.2281252 C8.04340081,14.1400142 7.96405912,14.0225328 7.88889331,13.9260303 C7.8721898,13.9050515 7.66339588,13.7036548 7.64669237,13.6784802 C7.62581298,13.6533056 7.60493359,13.6239353 7.58823007,13.594565 C7.52976778,13.5106497 7.49636075,13.4057556 7.43372258,13.3260361 C7.40866731,13.29247 7.36690852,13.2672954 7.34602913,13.2337293 C7.30009447,13.1707929 7.26668744,13.0994649 7.22075278,13.0365284 C7.14976285,12.9358301 7.05371765,12.8477191 6.98272772,12.7470207 C6.90338603,12.6379309 6.84492374,12.5078622 6.76558205,12.3987724 C6.72382326,12.3442275 6.67371272,12.2980741 6.63612982,12.2393334 C6.61942631,12.2141588 6.61107455,12.1889842 6.59437104,12.1638096 C6.56513989,12.1176562 6.52755698,12.0673071 6.50250171,12.0169579 C6.48162232,11.9708045 6.46909469,11.9288469 6.43986354,11.8868892 C6.35634597,11.7568206 6.27282841,11.6141646 6.18513496,11.484096 C6.14755206,11.4253553 6.12667267,11.358223 6.08908976,11.2994824 C6.02645159,11.2029798 5.9471099,11.1148688 5.88447173,11.0141704 C5.80930592,10.8966891 5.76754713,10.7540331 5.6965572,10.6365517 C5.64644666,10.561028 5.59216024,10.4855043 5.5420497,10.4099805 C5.48776329,10.3260652 5.46270802,10.2295627 5.41259748,10.1414517 C5.37083869,10.0659279 5.3123764,9.99459993 5.27479349,9.91488043 C5.23303471,9.83096516 5.20797944,9.74704989 5.16622066,9.65893886 C5.14534127,9.61278546 5.11193424,9.56663206 5.09105485,9.52047866 C5.06599958,9.46173798 5.05764782,9.39880152 5.03259255,9.3442566 C4.95742674,9.18481759 4.84885391,9.02957434 4.7736881,8.86593957 C4.71940168,8.74845819 4.67346702,8.63097682 4.62753236,8.50929968 C4.60247709,8.44216746 4.59412533,8.37923101 4.5607183,8.31629456 C4.49390425,8.16944284 4.41038668,8.01000383 4.34357263,7.86315211 C4.31851736,7.7834326 4.28928621,7.7037131 4.26005507,7.62818935 C4.25587919,7.60721054 4.25170331,7.58203596 4.24335155,7.56105714 C4.2141204,7.49392492 4.17236162,7.42259695 4.14730635,7.35546473 C4.12225108,7.27574522 4.09719581,7.19602572 4.07214054,7.11630621 C3.96774358,6.85616888 3.87587426,6.56246544 3.77565318,6.28974082 C3.75894967,6.23100013 3.75477379,6.16806368 3.73807028,6.11771452 C3.68795974,5.97925432 3.6378492,5.84079413 3.58356278,5.69813817 C3.55433163,5.62681019 3.48751758,5.65198477 3.50422109,5.72331275 C3.52510048,5.81981531 3.53762812,5.84079413 3.55433163,5.92051363 C3.56268339,5.95827551 3.57103515,5.99603738 3.5793869,6.03799501 C3.58773866,6.08414841 3.61279393,6.13449757 3.62532156,6.1764552 C3.65037683,6.26037047 3.65455271,6.34428574 3.67960798,6.42400525 C3.72136677,6.53729086 3.75894967,6.64638071 3.79653257,6.75966632 C3.80906021,6.81840701 3.81741197,6.87295193 3.8299396,6.93169262 C3.84664311,6.98623755 3.86752251,7.04078247 3.8884019,7.09113163 C3.94686419,7.23378759 4.00115061,7.37224778 4.05126115,7.51070798 C4.07214054,7.59042748 4.09301993,7.67014699 4.11389933,7.74986649 C4.13477872,7.79601989 4.16400987,7.84217329 4.18488926,7.88413092 C4.20159277,7.92189279 4.20576865,7.95965467 4.22247216,8.0016123 C4.26005507,8.08972333 4.28928621,8.18203013 4.331045,8.27433692 C4.36445202,8.34986066 4.40621081,8.42538441 4.43544195,8.50510391 C4.44796959,8.54286578 4.44796959,8.57643189 4.46049722,8.61838952 C4.54819067,8.85754804 4.64005999,9.10929385 4.74445695,9.33166931 C4.76951222,9.38621423 4.77786398,9.44495492 4.80291925,9.50369561 C4.82379864,9.54984901 4.85302978,9.60439393 4.87390918,9.64635157 C4.88226093,9.67572191 4.89478857,9.70928802 4.90314032,9.73865836 C4.93654735,9.80579058 4.98665789,9.8603355 5.02006492,9.92746772 C5.10775836,10.1120813 5.18710005,10.2883034 5.29567289,10.4477424 C5.39589396,10.5945941 5.44182863,10.7875992 5.52117031,10.9638213 C5.55875322,11.0477366 5.60886376,11.1190645 5.65479842,11.1903925 C5.67567781,11.2281544 5.69238132,11.270112 5.70908484,11.3120697 C5.75919538,11.4043764 5.78842652,11.484096 5.84688882,11.5638155 C5.89282348,11.6309477 5.8886476,11.643535 5.93040639,11.7400375 C5.94293402,11.7652121 5.98886868,11.9414342 5.98051693,11.9414342 C5.96381341,11.9540215 5.88029585,11.8994765 5.8510647,11.8701062 C5.81348179,11.8281486 5.75084362,11.7652121 5.70908484,11.6729053 C5.68820545,11.6267519 5.64644666,11.5428366 5.62139139,11.4966832 C5.56710497,11.3792019 5.47523565,11.2826993 5.4084216,11.1778052 C5.37083869,11.1148688 5.3499593,11.0477366 5.31655228,10.9806043 C5.26226586,10.8589272 5.19545181,10.7330543 5.13698951,10.6113772 C5.11193424,10.561028 5.07435134,10.5064831 5.04512019,10.4603297 C5.01171316,10.4099805 4.99918553,10.3596314 4.9657785,10.3092822 C4.89896445,10.2043881 4.82379864,10.082711 4.76951222,9.96522959 C4.72775344,9.88131432 4.70687404,9.79320329 4.66929114,9.70928802 C4.6567635,9.68411344 4.63588411,9.65893886 4.6191806,9.63376428 C4.58994945,9.59180664 4.5815977,9.54145748 4.55654243,9.49530408 C4.52731128,9.43236763 4.48137662,9.36943118 4.45214547,9.30229896 C4.39368317,9.16803454 4.35610027,9.03377011 4.29346209,8.90370144 C4.26423094,8.84496075 4.21829628,8.79041583 4.18906513,8.73167514 C4.14313047,8.63936834 4.1389546,8.52188697 4.09719581,8.42118864 C3.9844471,8.16524707 3.85081899,7.89671821 3.75477379,7.62818935 C3.73807028,7.58203596 3.7338944,7.53168679 3.72136677,7.48133763 C3.67960798,7.36385626 3.62114569,7.25476641 3.5793869,7.14148079 C3.56268339,7.08693587 3.55433163,7.04078247 3.53762812,6.98623755 C3.50839697,6.90651804 3.47081407,6.82679854 3.44158292,6.74707903 C3.43323116,6.72190445 3.42905528,6.69253411 3.42070353,6.66316376 C3.3872965,6.58764002 3.36641711,6.49952899 3.33301008,6.42400525 C3.31630657,6.38624338 3.28707542,6.34428574 3.27037191,6.29813234 C3.24531664,6.2226086 3.24949252,6.12191028 3.22443725,6.04638654 C3.18685434,5.93729669 3.1367438,5.81981531 3.0991609,5.71072546 C3.07410563,5.64778901 3.06992975,5.58485256 3.04905036,5.52191611 C3.02399509,5.45058813 2.99476394,5.36667286 2.96970867,5.29534488 C2.9446534,5.21982114 2.9446534,5.14010164 2.91959813,5.06038213 C2.90289462,5.00164144 2.87783935,4.93870499 2.85695996,4.88416007 C2.81937705,4.77926598 2.80684942,4.66598037 2.76509063,4.56528204 C2.76091476,4.54849899 2.752563,4.52752017 2.74421124,4.51073712 C2.73585949,4.48556254 2.71498009,4.4561922 2.68992482,4.46458372 C2.66069368,4.47297525 2.66069368,4.51493288 2.66069368,4.54010746 C2.66486955,4.61982697 2.6941007,4.69115495 2.71498009,4.7540914 C2.74003536,4.82122361 2.752563,4.89255159 2.76926651,4.95548804 C2.78179415,4.99744568 2.77761827,5.04359908 2.7901459,5.08555671 C2.80267354,5.14849316 2.82772881,5.20723385 2.84443232,5.2701703 C2.85695996,5.33310675 2.85278408,5.39184744 2.86531171,5.43800084 C2.9070705,5.57226527 2.94882928,5.71911699 2.99476394,5.84498989 C3.01564333,5.91212211 3.01564333,5.98345009 3.03652272,6.04219077 C3.06157799,6.10932299 3.08663326,6.1764552 3.10751265,6.24358742 C3.12421617,6.29393658 3.13256792,6.34848151 3.15344732,6.39883067 C3.17850259,6.45337559 3.20773373,6.51631204 3.22861313,6.57505273 C3.2536684,6.658968 3.2536684,6.7386875 3.27872367,6.81421125 C3.32465833,6.94008415 3.37894474,7.06176129 3.42487941,7.17924267 C3.44158292,7.2212003 3.44158292,7.2673537 3.45828643,7.3135071 C3.49586934,7.41840118 3.52092461,7.53168679 3.55850751,7.63658088 C3.61279393,7.78762836 3.68378386,7.93028432 3.73807028,8.0813318 C3.7923567,8.22818353 3.79653257,8.40440559 3.85917075,8.53867002 C3.89257778,8.60580223 3.95521595,8.64775987 3.9844471,8.71489208 C4.00532649,8.75684972 3.99697473,8.80719888 4.01367825,8.85335228 C4.03038176,8.9078972 4.05543703,8.96663789 4.07631642,9.01698705 C4.08884406,9.06314045 4.10137169,9.10929385 4.11389933,9.15544724 C4.13060284,9.20999217 4.17236162,9.26453709 4.19741689,9.31908202 C4.2349998,9.40719305 4.25587919,9.49949985 4.30598973,9.57502359 C4.34357263,9.63376428 4.38950729,9.6883092 4.42291432,9.75544142 C4.45632135,9.82676939 4.46884898,9.9064889 4.50225601,9.98201264 C4.55236655,10.0911025 4.61082884,10.2001923 4.65258763,10.313478 C4.69017053,10.418372 4.70269817,10.5316577 4.75280871,10.6197687 C4.80291925,10.7120755 4.86555742,10.791795 4.91566796,10.8841018 C4.94907499,10.951234 4.97830613,11.0183662 5.00753728,11.0854984 C5.03259255,11.1400434 5.08270309,11.1903925 5.11193424,11.2449374 C5.14951714,11.3120697 5.18710005,11.3875934 5.22050708,11.4589214 C5.24556235,11.5134663 5.2539141,11.5638155 5.28314525,11.6057731 C5.32907991,11.6771011 5.36248694,11.7358418 5.4084216,11.8071697 C5.45018038,11.8701062 5.49611504,11.9498257 5.52534619,12.0253494 C5.54622558,12.0798944 5.57128085,12.1428308 5.600512,12.1889842 C5.63391903,12.2393334 5.67985369,12.281291 5.71326072,12.3316402 C5.74249186,12.3861851 5.78425065,12.5582114 5.76754713,12.5624072 C5.72996423,12.5749944 5.62556727,12.4742961 5.600512,12.44073 C5.51699444,12.3400317 5.47523565,12.2057673 5.40006984,12.0966774 C5.32072815,11.9833918 5.27061762,11.9162596 5.20797944,11.7861909 C5.17039654,11.7106672 5.10775836,11.572207 5.06599958,11.5050748 C5.0242408,11.4421383 4.96995438,11.3833976 4.93654735,11.3120697 C4.91149208,11.253329 4.89896445,11.182001 4.87390918,11.1232603 C4.83215039,11.039345 4.75280871,10.9848001 4.71104992,10.8966891 C4.66511526,10.8001865 4.64423587,10.6994882 4.59412533,10.6071814 C4.56907006,10.561028 4.53983891,10.5148746 4.51895952,10.4687212 C4.48972837,10.4099805 4.47720074,10.3554356 4.45214547,10.2966949 C4.39785905,10.1792135 4.31434148,10.0785152 4.26005507,9.96103382 C4.20576865,9.83935668 4.17236162,9.70928802 4.11389933,9.58341512 C4.08466818,9.5162829 4.03038176,9.46173798 3.99697473,9.39460576 C3.95521595,9.30649473 3.93433656,9.21418793 3.89257778,9.1260769 C3.86752251,9.07153198 3.8299396,9.02118281 3.80488433,8.96663789 C3.75894967,8.89530991 3.74642203,8.81139464 3.71301501,8.73167514 C3.63367332,8.55125731 3.55015575,8.36244796 3.47081407,8.18203013 C3.44158292,8.11489791 3.43323116,8.03937417 3.39982414,7.97224196 C3.37059299,7.9093055 3.33718596,7.85056482 3.30795481,7.78762836 C3.23696488,7.62818935 3.21190961,7.44357576 3.14091968,7.27994099 C3.10333678,7.20022148 3.06157799,7.12050198 3.02817097,7.03658671 C2.97806043,6.89812652 2.95718104,6.75547056 2.9070705,6.61701037 C2.83190469,6.40302643 2.76926651,6.18065097 2.6941007,5.96666703 C2.66904543,5.90373058 2.66904543,5.84079413 2.64399016,5.77366191 C2.61893489,5.71072546 2.5980555,5.64778901 2.57717611,5.58485256 C2.5604726,5.5345034 2.55212084,5.46317542 2.53541733,5.39604321 C2.48113091,5.21562538 2.42266861,5.03520755 2.36420632,4.85059396 C2.35167868,4.80863632 2.3475028,4.72891682 2.33497517,4.67437189 C2.32662341,4.64500155 2.3099199,4.60723968 2.29739226,4.57786933 C2.28068875,4.5359117 2.28068875,4.50234559 2.26816112,4.4561922 C2.22640233,4.32192777 2.18881943,4.17088028 2.14706065,4.03661585 C2.13870889,4.00304974 2.13453301,3.94430906 2.12200538,3.89395989 C2.06354308,3.70515054 2.03431193,3.47438355 1.95914612,3.29816149 C1.94661849,3.26879114 1.92156322,3.23102927 1.89233207,3.2394208 C1.85474916,3.24781233 1.86310092,3.2855742 1.8672768,3.3191403 C1.87562856,3.40305557 1.90903558,3.47857931 1.92156322,3.54990729 C1.9257391,3.5834734 1.9257391,3.62543103 1.92991497,3.66319291 C1.93409085,3.69675901 1.93826673,3.73452088 1.95079436,3.76808699 C1.98420139,3.8813726 2.02596017,4.01144127 2.0593672,4.12472688 C2.07189484,4.17927181 2.0593672,4.25899131 2.07607071,4.32192777 C2.12200538,4.50234559 2.15958828,4.71632953 2.22222645,4.87576854 C2.28068875,5.02262026 2.29321639,5.19884232 2.33497517,5.35828133 C2.3475028,5.42541355 2.35167868,5.49674153 2.36003044,5.56387374 C2.37255807,5.63100596 2.4059651,5.67715936 2.42684449,5.73170428 C2.443548,5.77366191 2.43937213,5.80722802 2.45607564,5.85338142 C2.49365854,5.96666703 2.51871381,6.07995265 2.5604726,6.19323826 C2.58970375,6.27295776 2.63146253,6.34848151 2.66069368,6.42400525 C2.67322131,6.46176712 2.66904543,6.49113746 2.67739719,6.52889933 C2.6941007,6.60861884 2.71080422,6.68833834 2.73168361,6.76386209 C2.78597003,6.91910533 2.84025644,7.09113163 2.89871874,7.24637488 C2.92794989,7.33448591 2.94047752,7.41840118 2.96970867,7.50231645 C3.09080914,7.83797753 3.21608549,8.1736386 3.33718596,8.50929968 C3.35806535,8.58482342 3.37894474,8.6561514 3.39564826,8.73167514 C3.42070353,8.80719888 3.46663819,8.87013533 3.50004522,8.93726755 C3.53762812,9.02537858 3.55433163,9.11348961 3.58773866,9.20579641 C3.62532156,9.31488626 3.6754321,9.39880152 3.71719089,9.50789137 C3.73807028,9.5624363 3.75477379,9.62117699 3.77982906,9.67152615 C3.80070845,9.70928802 3.8299396,9.74704989 3.85081899,9.78900752 C3.88422602,9.85613974 3.8884019,9.94005501 3.91763305,10.0071872 C3.95104007,10.0743194 4.00532649,10.1288644 4.04290939,10.1918008 C4.07631642,10.2505415 4.0804923,10.3218695 4.10972345,10.3890017 C4.15565811,10.4897 4.2141204,10.5820068 4.26005507,10.6910967 C4.27675858,10.7372501 4.28511034,10.7792077 4.30598973,10.8211653 C4.331045,10.8715145 4.3686279,10.9176679 4.38950729,10.968017 C4.38950729,10.968017 4.38950729,10.968017 4.39368317,10.9722128 C4.39785905,10.9806043 4.39785905,10.9889959 4.40203493,10.9973874 C4.40621081,11.0183662 4.41456256,11.0435408 4.41873844,11.0645196 C4.43126608,11.09389 4.46049722,11.1484349 4.47302486,11.1652179 C4.48137662,11.1778052 4.50225601,11.2029798 4.5231354,11.2281544 C4.53148716,11.2365459 4.53983891,11.2449374 4.54819067,11.2575247 C4.59412533,11.3288527 4.59830121,11.4253553 4.63170823,11.5050748 C4.66929114,11.5805985 4.73192931,11.6393392 4.76951222,11.7190587 C4.79874337,11.7777994 4.81544688,11.9246511 4.77786398,11.9288469 C4.62753236,11.9288469 4.61500472,11.7148629 4.56489418,11.6057731 C4.5231354,11.5176621 4.46049722,11.4463341 4.41873844,11.3624188 C4.41038668,11.3456358 4.39368317,11.3120697 4.38533142,11.2785035 C4.37697966,11.2491332 4.36445202,11.2197629 4.35192439,11.1945883 C4.331045,11.1526306 4.331045,11.1610222 4.31851736,11.1316518 C4.30598973,11.1022815 4.26423094,11.0477366 4.24752743,11.022562 C4.24752743,11.022562 4.24752743,11.0183662 4.24752743,11.0183662 C4.18906513,10.9260594 4.15148223,10.791795 4.10972345,10.7288585 C4.08466818,10.6910967 4.05543703,10.6575306 4.03455764,10.6239644 C3.99697473,10.5652238 3.98027122,10.4938958 3.94686419,10.4267636 C3.91763305,10.3638271 3.87169838,10.3050864 3.84664311,10.24215 C3.81323609,10.1666262 3.81323609,10.0743194 3.77565318,9.9987957 C3.75894967,9.95683806 3.72554264,9.91488043 3.70466325,9.87711856 C3.66290447,9.78900752 3.6378492,9.69670073 3.59609042,9.61278546 C3.57521102,9.57082782 3.541804,9.53306595 3.52092461,9.49110832 C3.48751758,9.41978034 3.47081407,9.34006084 3.43323116,9.27292862 C3.35388947,9.13027266 3.27037191,8.97083365 3.20355786,8.81978617 C3.16597495,8.73167514 3.15344732,8.63936834 3.11586441,8.55545307 C3.08245738,8.47992933 3.03652272,8.40440559 3.0031157,8.33307761 C2.97806043,8.28272845 2.97388455,8.23657505 2.95300516,8.18203013 C2.92377401,8.09811486 2.8861911,8.01000383 2.85278408,7.92608856 C2.83608056,7.86734787 2.81937705,7.74147497 2.80267354,7.69112581 C2.77761827,7.62818935 2.74838712,7.56105714 2.71915597,7.49812069 C2.67739719,7.40581389 2.66486955,7.30931133 2.62311077,7.21280877 C2.59387962,7.14148079 2.55629672,7.06595705 2.53124145,6.99043331 C2.50618618,6.94008415 2.5020103,6.88134346 2.47695503,6.82260277 C2.45607564,6.77644938 2.43102037,6.73029598 2.41431686,6.68414258 C2.39343746,6.62959766 2.38090983,6.54148662 2.36420632,6.46596288 C2.33915105,6.38624338 2.30574402,6.31071963 2.28068875,6.23100013 C2.26398524,6.17225944 2.26398524,6.03799501 2.24728172,6.00023314 C2.16376416,5.7526831 2.08859835,5.49254576 2.00925666,5.24919148 C1.97167376,5.13590587 1.95914612,5.02262026 1.9257391,4.91353041 C1.91321146,4.87157278 1.91321146,4.81283209 1.90068383,4.77087445 C1.87980443,4.69954647 1.85057329,4.6282185 1.82551802,4.55269475 C1.81299038,4.50234559 1.80463862,4.45199643 1.79628687,4.40164727 C1.78375923,4.35129811 1.75870396,4.29675318 1.73782457,4.24640402 C1.69606579,4.0995523 1.67101052,3.94430906 1.62507586,3.8016531 C1.61254822,3.74291241 1.61254822,3.66319291 1.59584471,3.60864798 C1.54155829,3.43242592 1.52485478,3.22263774 1.47474424,3.03802415 C1.4622166,2.98347923 1.45386485,2.9289343 1.44133721,2.87858514 C1.34946789,2.53033678 1.30770911,2.13593501 1.20748803,1.80027394 C1.18660864,1.73733749 1.21583978,1.65342222 1.19496039,1.58629 C1.174081,1.5065705 1.15320161,1.43943828 1.12814634,1.36811031 C1.12397046,1.33034843 1.11979458,1.30517385 1.1156187,1.27160775 C1.09473931,1.21286706 1.06968404,1.17090942 1.0404529,1.17510519 C1.00286999,1.18769248 1.01122175,1.22125859 1.01122175,1.27160775 C1.01539763,1.34713149 1.02374938,1.4142637 1.03627702,1.47720015 C1.05298053,1.53174508 1.04462877,1.57370271 1.05715641,1.61985611 C1.09056343,1.72894596 1.09891519,1.88418921 1.1156187,1.98069177 C1.12814634,2.0226494 1.11979458,2.07719433 1.12814634,2.12754349 C1.1364981,2.17789265 1.17825688,2.2408291 1.18660864,2.29537403 C1.19913627,2.366702 1.19496039,2.46320456 1.20748803,2.54292407 C1.22001566,2.61005628 1.24089505,2.67299273 1.25759857,2.73592919 C1.27430208,2.79047411 1.26177445,2.84082327 1.27847796,2.89117243 C1.29518147,2.93732583 1.32023674,2.98767499 1.33276438,3.04641568 C1.34111613,3.10935213 1.33276438,3.19746316 1.34529201,3.25200809 C1.4246337,3.55829882 1.44968897,3.92333024 1.53738241,4.21703368 C1.54991005,4.25899131 1.54991005,4.30514471 1.56243768,4.34710235 C1.63760349,4.60723968 1.69188991,4.8799643 1.7712316,5.13590587 C1.77958335,5.17786351 1.77958335,5.21562538 1.78793511,5.26177878 C1.81299038,5.34988981 1.83804565,5.45058813 1.85474916,5.53869916 C1.86310092,5.5806568 1.86310092,5.61841867 1.87562856,5.6603763 C1.90068383,5.7526831 1.93409085,5.84498989 1.963322,5.93729669 C1.97584963,5.98345009 1.98002551,6.02540772 1.98837727,6.07156112 C1.99672903,6.10512723 2.01343254,6.14708486 2.02596017,6.18065097 C2.04266369,6.23519589 2.03848781,6.28554505 2.05519132,6.33589421 C2.06771896,6.36526456 2.08859835,6.39883067 2.09695011,6.42820101 C2.10947774,6.48274594 2.1178295,6.53729086 2.13035713,6.59183578 C2.15123652,6.658968 2.18464355,6.72190445 2.2138747,6.7848409 C2.23475409,6.83938583 2.23057821,6.89393075 2.2514576,6.94427991 C2.28904051,7.03239095 2.32662341,7.14148079 2.36003044,7.23798335 C2.38926159,7.31770286 2.39343746,7.39742236 2.42266861,7.47714187 C2.43937213,7.53168679 2.46860327,7.58623172 2.48530679,7.63658088 C2.49783442,7.67853851 2.5020103,7.72049615 2.51871381,7.76245378 C2.53124145,7.80021565 2.57300023,7.86315211 2.60223138,7.91350127 C2.62311077,7.96804619 2.61475901,8.04356993 2.63146253,8.10650639 C2.64816604,8.16944284 2.68574895,8.219792 2.70662834,8.27433692 C2.72750773,8.33307761 2.72333185,8.3918183 2.74003536,8.45055899 C2.75673888,8.49671239 2.78597003,8.53867002 2.80684942,8.58062765 C2.82355293,8.63097682 2.84443232,8.68132598 2.86113583,8.72747937 C2.87366347,8.76104548 2.90289462,8.79461159 2.91542225,8.82398193 C2.9446534,8.88272262 2.96553279,8.94565907 2.99058806,9.00439976 C3.02399509,9.08831503 3.02817097,9.19320912 3.05322624,9.28971167 C3.06157799,9.31488626 3.05740212,9.38201847 3.0406986,9.39041 C3.0031157,9.39880152 2.95718104,9.33586507 2.93212577,9.2981032 C2.8861911,9.23516675 2.84443232,9.16383877 2.8110253,9.08411927 C2.79849766,9.05474892 2.79432178,9.02537858 2.78597003,8.99600823 C2.76091476,8.93307178 2.74003536,8.85754804 2.71080422,8.79461159 C2.6941007,8.75684972 2.66904543,8.71069632 2.6565178,8.66873869 C2.63563841,8.60580223 2.64399016,8.53447426 2.61893489,8.47992933 C2.5980555,8.43377593 2.56464848,8.40020983 2.54376908,8.35405643 C2.52706557,8.31209879 2.52288969,8.27014116 2.5020103,8.22818353 C2.48113091,8.17783436 2.45189976,8.13587673 2.42266861,8.08972333 C2.40178922,8.04356993 2.4059651,7.99741654 2.38926159,7.94287161 C2.37255807,7.87993516 2.35167868,7.81699871 2.32662341,7.76245378 C2.30156814,7.7037131 2.26398524,7.64497241 2.23892997,7.58203596 C2.22640233,7.54846985 2.22222645,7.51490374 2.20969882,7.48133763 C2.19299531,7.43518424 2.17211591,7.38903084 2.15123652,7.34287744 C2.14288477,7.30931133 2.13453301,7.27574522 2.1178295,7.24217912 C2.09695011,7.19182996 2.07189484,7.13728503 2.05101544,7.08274011 C2.03431193,7.03658671 2.03431193,6.99043331 2.01760842,6.94847568 C1.98837727,6.8771477 1.963322,6.78903667 1.93826673,6.71351292 C1.92156322,6.65477224 1.91321146,6.59603155 1.90068383,6.53729086 C1.87980443,6.47015864 1.84639741,6.39883067 1.82134214,6.32750269 C1.80046275,6.27295776 1.79628687,6.21002131 1.77958335,6.15547639 C1.75452808,6.07995265 1.71694518,6.01282043 1.69188991,5.93310093 C1.6751864,5.87016447 1.67101052,5.80722802 1.65848288,5.74848733 C1.6167241,5.60583138 1.57078944,5.4421966 1.52485478,5.29534488 C1.47474424,5.13171011 1.47056836,4.94290075 1.42045782,4.77507022 C1.38705079,4.65758884 1.34529201,4.54010746 1.30770911,4.42262609 C1.29518147,4.35968964 1.29100559,4.30514471 1.27847796,4.24220826 C1.24507093,4.11633536 1.19913627,3.94430906 1.15320161,3.80584886 C1.13232222,3.73452088 1.1364981,3.65899714 1.1156187,3.57927764 C1.09473931,3.50375389 1.09473931,3.40725134 1.06968404,3.32753183 C1.05298053,3.27298691 1.03210114,3.2394208 1.0195735,3.17228858 C1.00704587,3.10515637 1.01122175,3.02963263 0.998694112,2.97928347 C0.990342355,2.93313007 0.906824789,2.63942663 0.894297154,2.5848817 C0.885945398,2.53033678 0.885945398,2.43383422 0.88176952,2.39607235 C0.873417763,2.37509353 0.83165898,2.24922063 0.827483102,2.21565452 C0.819131345,2.18208841 0.819131345,2.14432654 0.80660371,2.08139009 C0.794076075,2.01425787 0.75649317,1.87160192 0.752317292,1.82964428 C0.748141414,1.78768665 0.748141414,1.70377138 0.735613779,1.66181375 C0.727262022,1.61985611 0.698030874,1.52335355 0.681327361,1.45622134 C0.660447969,1.37230607 0.677151483,1.28419504 0.656272091,1.20447553 C0.6353927,1.14993061 0.614513308,1.09118992 0.593633917,1.03664499 C0.581106282,0.986295833 0.564402769,0.923359381 0.56022689,0.893989037 C0.556051012,0.852031403 0.551875134,0.759724607 0.551875134,0.7261585 C0.551875134,0.675809338 0.530995742,0.600285597 0.526819864,0.528957618 C0.522643986,0.432455059 0.501764594,0.3359525 0.485061081,0.277211812 C0.476709324,0.243645704 0.480885202,0.20168807 0.472533446,0.172317726 C0.451654054,0.0800109303 0.426598785,-0.00390433841 0.380664123,0.000140482555 C0.347257097,0.00448718847 0.334729462,0.0338575325 0.351432975,0.0925982206 C0.368136488,0.163926199 0.376488245,0.218471124 0.393191758,0.289799102 C0.401543515,0.327560973 0.405719393,0.419867769 0.405719393,0.453433876 C0.405719393,0.503783037 0.409895271,0.516370328 0.41407115,0.562523726 C0.418247028,0.583502543 0.426598785,0.629655941 0.430774663,0.650634758 C0.439126419,0.684200865 0.451654054,0.730354263 0.451654054,0.755528844 C0.451654054,0.789094951 0.447478176,0.822661059 0.447478176,0.868814456 C0.447478176,0.893989037 0.451654054,0.902380564 0.460005811,0.944338198 C0.468357568,0.986295833 0.476709324,0.99468736 0.476709324,1.02825347 C0.480885202,1.05762381 0.476709324,1.08699416 0.476709324,1.11216874 C0.476709324,1.14573484 0.480885202,1.17510519 0.489236959,1.20447553 C0.510116351,1.25902046 0.547699255,1.34293572 0.530995742,1.43524252 C0.514292229,1.53174508 0.543523377,1.61985611 0.564402769,1.70377138 C0.572754525,1.75831631 0.564402769,1.81705699 0.572754525,1.86740615 C0.593633917,1.93873413 0.61033743,2.01425787 0.631216821,2.08978162 C0.647920335,2.1485223 0.6353927,2.20726299 0.652096213,2.26180792 C0.677151483,2.34152742 0.731437901,2.45061727 0.739789657,2.48837914 C0.743965536,2.52614101 0.739789657,2.62264357 0.752317292,2.68558002 C0.760669049,2.74851648 0.777372562,2.81984445 0.78154844,2.85760633 C0.785724319,2.8953682 0.78154844,2.91634701 0.785724319,2.94152159 C0.789900197,2.97089194 0.83165898,3.1135479 0.835834858,3.147114 C0.840010736,3.18907164 0.840010736,3.20585469 0.848362493,3.24361656 C0.852538371,3.28137843 0.885945398,3.43242592 0.894297154,3.48277508 C0.902648911,3.53312424 0.898473033,3.56249458 0.911000668,3.60864798 C0.927704181,3.68417172 0.956935329,3.74710817 0.969462964,3.81843615 C0.981990599,3.87298108 0.97781472,3.90654718 0.981990599,3.94850482 C0.998694112,4.01563703 1.0195735,4.07857349 1.03210114,4.14150994 C1.0404529,4.1918591 1.0404529,4.24220826 1.05298053,4.29255742 C1.0780358,4.40164727 1.09056343,4.51073712 1.11979458,4.61982697 C1.1364981,4.68276342 1.174081,4.74150411 1.19496039,4.8002448 C1.21166391,4.85898549 1.21583978,4.91772617 1.22836742,4.9722711 C1.24507093,5.02262026 1.27847796,5.06457789 1.29100559,5.11492705 C1.29935735,5.16108045 1.29518147,5.20303809 1.30353323,5.24919148 C1.31606086,5.29954065 1.33694025,5.34988981 1.34946789,5.40443473 C1.35781965,5.44639237 1.35364377,5.48415424 1.3661714,5.52611187 C1.38287492,5.57226527 1.40375431,5.61002714 1.41210606,5.65618054 C1.4246337,5.71072546 1.42045782,5.76946615 1.43716133,5.82401108 C1.45386485,5.89114329 1.47892012,5.94988398 1.49979951,6.01282043 C1.51650302,6.06736536 1.50815126,6.13030181 1.52485478,6.19323826 C1.56243768,6.32330692 1.60419647,6.47015864 1.65013113,6.59183578 C1.66683464,6.658968 1.66683464,6.72610021 1.68771403,6.80162396 C1.70441755,6.84777735 1.72529694,6.88134346 1.74617633,6.9233011 C1.76287984,6.96525873 1.74617633,7.01560789 1.76287984,7.06176129 C1.78375923,7.14148079 1.79628687,7.24637488 1.82551802,7.32609439 C1.85892504,7.41420542 1.90903558,7.4855334 1.93826673,7.57364443 C1.96749788,7.66175546 1.97167376,7.75406226 2.0009049,7.84636905 C2.03013605,7.92608856 2.06771896,7.99741654 2.10112598,8.07294028 C2.12618125,8.13587673 2.1178295,8.219792 2.14288477,8.29111998 C2.16794004,8.36664372 2.22222645,8.42118864 2.2514576,8.50090815 C2.28486463,8.58901918 2.30574402,8.67293445 2.33079929,8.76104548 C2.33915105,8.79880735 2.3475028,8.83656922 2.35585456,8.87013533 C2.38926159,8.98342094 2.44772388,9.07572774 2.48530679,9.18481759 C2.5020103,9.23516675 2.50618618,9.27712438 2.51871381,9.32327778 C2.54794496,9.39880152 2.57717611,9.47852103 2.61475901,9.55404477 C2.64399016,9.62117699 2.68574895,9.68411344 2.71915597,9.75124565 C2.74421124,9.8141821 2.752563,9.87711856 2.77761827,9.94005501 C2.80267354,10.0029915 2.83190469,10.0659279 2.85695996,10.1330601 C2.86948759,10.170822 2.87366347,10.2085839 2.89036698,10.24215 C2.96553279,10.4141763 3.06157799,10.5862026 3.1367438,10.7540331 C3.17850259,10.8463399 3.19938198,10.9428425 3.24114076,11.039345 C3.27454779,11.110673 3.31630657,11.182001 3.3497136,11.2617205 C3.37059299,11.3120697 3.37476887,11.358223 3.39564826,11.4043764 C3.43740704,11.4966832 3.49586934,11.58899 3.53762812,11.6812968 C3.55015575,11.7022757 3.5793869,11.802974 3.56685927,11.8407358 C3.56685927,11.8449316 3.56268339,11.8533231 3.55850751,11.8575189 C3.52927636,11.8659104 3.47081407,11.8155613 3.44158292,11.7861909 C3.33301008,11.6812968 3.31630657,11.4757044 3.24114076,11.3372442 C3.22026137,11.2994824 3.1952061,11.253329 3.17432671,11.2113713 C3.16597495,11.182001 3.15762319,11.1526306 3.14509556,11.1232603 C3.0991609,11.0351493 3.0406986,10.951234 2.99893982,10.8589272 C2.96970867,10.791795 2.96553279,10.7120755 2.93212577,10.6449433 C2.80684942,10.3764144 2.66486955,10.1204728 2.54794496,9.84774821 C2.49365854,9.72607107 2.48113091,9.58761088 2.43519625,9.45334645 C2.4059651,9.37362694 2.36003044,9.31069049 2.32662341,9.23516675 C2.30156814,9.17642606 2.29321639,9.11768537 2.26816112,9.05894469 C2.23057821,8.98342094 2.18464355,8.91209297 2.1554124,8.8281777 C2.13870889,8.77363277 2.13035713,8.71908785 2.10947774,8.66454292 C2.08442247,8.60580223 2.04266369,8.55545307 2.01760842,8.50090815 C1.98002551,8.41699288 1.97584963,8.33307761 1.94661849,8.23657505 C1.92991497,8.18622589 1.90903558,8.13168097 1.89233207,8.0813318 C1.87980443,8.03517841 1.87145268,7.99322077 1.85892504,7.94706737 C1.82134214,7.84636905 1.76287984,7.75825802 1.72529694,7.65336393 C1.70024167,7.58203596 1.70441755,7.49392492 1.6751864,7.42679271 C1.65013113,7.37224778 1.60837234,7.32609439 1.58331707,7.2673537 C1.5582618,7.20861301 1.58331707,7.13308927 1.56243768,7.06176129 C1.54573417,6.99462907 1.51650302,6.92749686 1.49144775,6.86456041 C1.47892012,6.82260277 1.47474424,6.7848409 1.4622166,6.74288327 C1.43298546,6.658968 1.40375431,6.57505273 1.37034728,6.49113746 C1.35364377,6.44917983 1.35364377,6.41141796 1.33694025,6.36946032 C1.31606086,6.31911116 1.27847796,6.27295776 1.26177445,6.21841284 C1.24089505,6.13869333 1.2325433,6.05477806 1.21583978,5.97505856 C1.18243276,5.87016447 1.14484985,5.78205344 1.11144283,5.68135512 C1.10309107,5.64778901 1.10309107,5.61841867 1.09473931,5.5806568 C1.06968404,5.48835 1.05715641,5.38765168 1.03210114,5.29534488 C1.02374938,5.25338725 1.02374938,5.21142961 1.01539763,5.16947198 C0.97781472,5.07716518 0.948583572,4.99324992 0.923528303,4.90933465 C0.911000668,4.85898549 0.906824789,4.80444056 0.894297154,4.74989564 C0.852538371,4.61563121 0.814955467,4.4561922 0.773196684,4.32612353 C0.764844927,4.28836166 0.764844927,4.25479555 0.75649317,4.20864215 C0.723086144,4.10794383 0.681327361,3.98626669 0.660447969,3.87717684 C0.647920335,3.81843615 0.647920335,3.75969546 0.631216821,3.70095478 C0.614513308,3.6296268 0.589458038,3.55829882 0.576930403,3.48697084 C0.572754525,3.45340473 0.576930403,3.42823015 0.572754525,3.39885981 C0.568578647,3.35690217 0.564402769,3.31074878 0.556051012,3.26459538 C0.510116351,3.07998179 0.439126419,2.8492148 0.397367636,2.66460121 C0.384840002,2.59746899 0.380664123,2.53033678 0.376488245,2.46320456 C0.368136488,2.41705116 0.36396061,2.35831048 0.351432975,2.31215708 C0.33890534,2.26180792 0.31385007,2.21145876 0.309674192,2.1611096 C0.297146557,2.08139009 0.297146557,2.00586635 0.284618922,1.92614684 C0.284618922,1.92195108 0.280443044,1.91355955 0.280443044,1.90936379 C0.263739531,1.81286123 0.217804869,1.61985611 0.205277235,1.54433237 C0.1927496,1.44782981 0.184397843,1.35552302 0.171870208,1.26321622 C0.16769433,1.20447553 0.159342573,1.14573484 0.150990817,1.07860263 C0.138463182,0.982100069 0.11758379,0.898184801 0.105056155,0.801682242 C0.0967043987,0.734550027 0.100880277,0.675809338 0.0925285204,0.621264414 C0.0883526421,0.583502543 0.0841767638,0.520566091 0.0424179808,0.520566091 C0.000659197735,0.520566091 0.00483507604,0.575111016 0.000659197735,0.61706865 C-0.00351668057,0.717766973 0.0131868326,0.847835639 0.0215385892,0.910772091 C0.0340662242,1.01986194 0.0257144675,1.13314755 0.0382421025,1.25062893 C0.0465938591,1.31356538 0.0674732506,1.3806976 0.0716491289,1.44363405 C0.0883526421,1.5527239 0.0967043987,1.66600951 0.113407912,1.7709036 C0.113407912,1.7709036 0.113407912,1.77509936 0.113407912,1.77509936 C0.11758379,1.82544852 0.125935547,1.87579768 0.134287303,1.92195108 C0.134287303,1.92614684 0.138463182,1.93034261 0.138463182,1.93453837 C0.138463182,1.93873413 0.138463182,1.93873413 0.14263906,1.9429299 C0.14263906,1.94712566 0.14263906,1.94712566 0.14263906,1.95132142 L0.14263906,1.95132142 C0.14263906,1.97230024 0.146814938,1.99327906 0.155166695,2.01425787 C0.16769433,2.05621551 0.159342573,2.08978162 0.171870208,2.13173925 C0.205277235,2.25761215 0.196925478,2.39607235 0.234508383,2.52194525 C0.284618922,2.70655884 0.31385007,2.91215125 0.36396061,3.09256908 C0.380664123,3.147114 0.36396061,3.19746316 0.380664123,3.25620385 C0.393191758,3.31494454 0.409895271,3.37368523 0.422422906,3.43242592 C0.439126419,3.50375389 0.426598785,3.57088611 0.443302298,3.64221409 C0.460005811,3.70515054 0.480885202,3.77228275 0.501764594,3.83521921 C0.518468107,3.91074295 0.522643986,3.99046245 0.543523377,4.07018196 C0.568578647,4.15409723 0.593633917,4.24220826 0.61033743,4.32612353 C0.627040943,4.41843032 0.6353927,4.52752017 0.656272091,4.6282185 C0.672975604,4.71213376 0.718910266,4.81283209 0.739789657,4.90094312 C0.743965536,4.93031346 0.743965536,4.95968381 0.748141414,4.99324992 C0.760669049,5.05618637 0.777372562,5.12331858 0.794076075,5.18625503 C0.802427832,5.21562538 0.798251953,5.24079996 0.80660371,5.2701703 C0.840010736,5.39184744 0.873417763,5.54289493 0.911000668,5.6603763 C0.919352424,5.69394241 0.923528303,5.72750852 0.931880059,5.76107462 C0.956935329,5.84498989 0.981990599,5.90792634 0.990342355,5.95407974 C0.998694112,5.99603738 1.00286999,6.04219077 1.01539763,6.08414841 C1.03210114,6.15128062 1.05298053,6.20582555 1.06550816,6.26037047 C1.07385992,6.30652387 1.08221168,6.34428574 1.09473931,6.39043914 C1.11144283,6.44498406 1.13232222,6.49533323 1.15320161,6.54568239 C1.19078451,6.65477224 1.19496039,6.76805785 1.2325433,6.87295193 C1.25342269,6.93588839 1.28682971,6.99462907 1.30770911,7.06176129 C1.32441262,7.12469774 1.3285885,7.19602572 1.34946789,7.26315793 C1.38287492,7.36805202 1.4246337,7.4855334 1.4622166,7.59042748 C1.50397539,7.71210462 1.53320653,7.85056482 1.57496532,7.96804619 C1.59166883,8.01419959 1.58749295,8.06035299 1.60419647,8.11070215 C1.63760349,8.22818353 1.67936228,8.35825219 1.71694518,8.47573357 C1.73782457,8.53867002 1.73782457,8.59741071 1.76287984,8.6561514 C1.80463862,8.75684972 1.85892504,8.84076499 1.89650795,8.94146331 C1.92991497,9.02957434 1.93409085,9.11348961 1.96749788,9.19320912 C2.00925666,9.30229896 2.06354308,9.41138881 2.10530186,9.52467443 C2.13453301,9.60439393 2.14288477,9.67991767 2.17629179,9.75544142 C2.20552294,9.81837787 2.24310585,9.88551008 2.26816112,9.94844653 C2.28904051,10.0029915 2.30574402,10.0617321 2.32662341,10.1162771 C2.34332693,10.1582347 2.38926159,10.2337584 2.41849273,10.2883034 C2.45189976,10.3638271 2.46025152,10.4519381 2.48948267,10.5358534 C2.53541733,10.6617263 2.5980555,10.791795 2.65234192,10.9134721 C2.67322131,10.9596255 2.67739719,11.0015832 2.6941007,11.0519323 C2.72750773,11.1358476 2.78179415,11.198784 2.81520117,11.2785035 C2.8486082,11.3540273 2.85695996,11.4337468 2.89036698,11.5050748 C2.94047752,11.6099689 2.97388455,11.6645138 2.97388455,11.819757 C2.97388455,11.8323443 2.96970867,11.8449316 2.95300516,11.8491274 C2.92377401,11.8575189 2.89454286,11.8113655 2.87366347,11.7945824 C2.79432178,11.7148629 2.78179415,11.6393392 2.73168361,11.5302494 C2.6565178,11.3624188 2.55629672,11.2071756 2.48113091,11.0435408 C2.43937213,10.9596255 2.42684449,10.8673187 2.38508571,10.7792077 C2.36003044,10.7246628 2.32662341,10.6701178 2.30156814,10.6197687 C2.26816112,10.5442449 2.24728172,10.4645254 2.20969882,10.3931975 C2.1554124,10.2924991 2.10947774,10.1750178 2.06354308,10.0617321 C2.04683957,10.0197745 2.04266369,9.97781688 2.02596017,9.93585924 C2.00508078,9.89390161 1.97584963,9.85194398 1.95497024,9.80998634 C1.9257391,9.73865836 1.90903558,9.65474309 1.87980443,9.58341512 C1.81716626,9.44915069 1.75035221,9.30649473 1.69606579,9.16383877 C1.65013113,9.03377011 1.62507586,8.9078972 1.5791412,8.77363277 C1.56243768,8.71908785 1.53320653,8.66034716 1.51650302,8.60580223 C1.49979951,8.55545307 1.49979951,8.51349544 1.483096,8.46734204 C1.44133721,8.3456649 1.38287492,8.219792 1.33276438,8.10650639 C1.30770911,8.0477657 1.29935735,7.99322077 1.27847796,7.93448008 C1.25342269,7.86315211 1.22001566,7.77923684 1.19496039,7.70790886 C1.16155337,7.6114063 1.15737749,7.50231645 1.11979458,7.40161813 C1.04462877,7.18763419 0.944407694,6.96106297 0.877593641,6.73029598 C0.848362493,6.67994682 0.852538371,6.62540189 0.835834858,6.57505273 C0.798251953,6.46176712 0.760669049,6.33589421 0.727262022,6.21421708 C0.689679118,6.07995265 0.689679118,5.93729669 0.652096213,5.80722802 C0.597809795,5.63520172 0.539347499,5.45897966 0.485061081,5.29114912 C0.468357568,5.24079996 0.476709324,5.18625503 0.460005811,5.13171011 C0.422422906,5.00164144 0.380664123,4.84639819 0.33890534,4.72891682 C0.318025949,4.67017613 0.318025949,4.60304392 0.292970679,4.54849899 C0.267915409,4.48136678 0.196925478,4.50654136 0.201101356,4.5820651 C0.205277235,4.65339308 0.230332504,4.74150411 0.238684261,4.77926598 C0.247036018,4.82961514 0.247036018,4.87576854 0.255387774,4.9261177 C0.276267166,5.0184245 0.305498314,5.09394824 0.330553584,5.17786351 C0.355608853,5.26597454 0.355608853,5.34569404 0.380664123,5.43380508 C0.393191758,5.47576271 0.409895271,5.52611187 0.426598785,5.56806951 C0.451654054,5.65618054 0.451654054,5.7526831 0.480885202,5.8324026 C0.505940472,5.89533905 0.522643986,5.9708628 0.539347499,6.03799501 C0.551875134,6.08414841 0.547699255,6.11771452 0.564402769,6.16386791 C0.589458038,6.24358742 0.614513308,6.32330692 0.639568578,6.40302643 C0.652096213,6.44917983 0.647920335,6.49113746 0.656272091,6.5330951 C0.672975604,6.59603155 0.689679118,6.66316376 0.706382631,6.72190445 C0.723086144,6.77644938 0.723086144,6.86036464 0.739789657,6.91910533 C0.773196684,7.02819518 0.814955467,7.14567656 0.852538371,7.25057064 C0.894297154,7.36805202 0.898473033,7.48972916 0.940231816,7.60721054 C1.01539763,7.81699871 1.08638756,8.05615722 1.15737749,8.2659454 C1.17825688,8.32049032 1.16990512,8.37503525 1.18660864,8.43377593 C1.21166391,8.52608273 1.22836742,8.61419376 1.26177445,8.70230479 C1.27847796,8.74426243 1.30353323,8.79041583 1.32441262,8.8281777 C1.34946789,8.87852686 1.35364377,8.93307178 1.37869904,8.98761671 C1.39540255,9.02957434 1.4246337,9.07153198 1.44133721,9.11768537 C1.46639248,9.18481759 1.45804073,9.26873286 1.483096,9.32747355 C1.50397539,9.37782271 1.53320653,9.43236763 1.54991005,9.48691256 C1.57078944,9.54565324 1.57078944,9.60439393 1.59584471,9.65893886 C1.6167241,9.70509225 1.65013113,9.75124565 1.67101052,9.79739905 C1.69188991,9.84355245 1.69606579,9.88970585 1.7127693,9.93585924 C1.72947281,9.98620841 1.75870396,10.0365576 1.77958335,10.0869067 C1.80463862,10.1372559 1.80463862,10.2001923 1.82969389,10.2547373 C1.85057329,10.3008907 1.88398031,10.3470441 1.90068383,10.401589 C1.91738734,10.4561339 1.92156322,10.5148746 1.93826673,10.5694195 C1.97167376,10.649139 2.0217843,10.7246628 2.05519132,10.8001865 C2.08024659,10.8589272 2.08442247,10.9218637 2.10947774,10.9848001 C2.13870889,11.0519323 2.18046767,11.1190645 2.2138747,11.1861967 C2.25563348,11.2743078 2.28486463,11.3708103 2.32244753,11.4547256 C2.38926159,11.6057731 2.41431686,11.7736036 2.48113091,11.9204553 C2.53124145,12.0295452 2.60223138,12.1344393 2.64816604,12.2435291 C2.67739719,12.3022698 2.68574895,12.369402 2.71498009,12.423947 C2.74421124,12.4910792 2.79849766,12.5456241 2.83190469,12.6127563 C2.85695996,12.6798885 2.87366347,12.7470207 2.90289462,12.8099572 C2.94047752,12.8938725 2.99893982,12.9693962 3.03652272,13.0491157 C3.05740212,13.0952691 3.06575387,13.1414225 3.09080914,13.1875759 C3.13256792,13.2756869 3.20355786,13.3554064 3.24531664,13.4435175 C3.26619603,13.5022582 3.28707542,13.5609989 3.30795481,13.6197395 C3.35388947,13.7162421 3.42487941,13.7959616 3.47081407,13.8966599 C3.50422109,13.9679879 3.52510048,14.0435116 3.56685927,14.1064481 C3.63367332,14.2113422 3.6754321,14.2784744 3.73807028,14.3791727 C3.77982906,14.4463049 3.83411548,14.5470033 3.86752251,14.6183312 C3.90092953,14.6896592 3.95521595,14.7483999 3.98862298,14.8197279 C4.02203,14.8910559 4.06378879,14.9623838 4.10137169,15.0295161 C4.14313047,15.1050398 4.18906513,15.1595847 4.23082392,15.2309127 C4.30598973,15.3441983 4.35610027,15.4658755 4.4270902,15.5833568 C4.47720074,15.6630763 4.53983891,15.7469916 4.59412533,15.8225153 C4.74445695,16.0323035 4.96160262,16.4015307 5.05347194,16.5274036 C5.12863775,16.6281019 5.19127593,16.7497791 5.26226586,16.8546732 C5.31655228,16.9385884 5.38336633,17.0183079 5.44182863,17.0938317 C5.49193917,17.1567681 5.52952207,17.2239003 5.57963261,17.2910325 L5.61721551,17.3413817 C7.55064717,19.8084906 9.53836524,21.4448384 11.2170683,22.514758 L11.2170683,22.514758 C12.1023545,23.0727946 12.5825805,23.2364293 12.5825805,23.2364293 C12.6953292,23.2825827 12.6159875,23.366498 12.5617011,23.4000641 L2.5980555,29.8195822 C2.56464848,29.840561 2.48948267,29.8993017 2.51871381,29.9622381 C2.54376908,30.0125873 2.64399016,29.9832169 2.66904543,29.9748254 C10.6742041,27.1510766 16.4828509,24.8308194 20.0323474,23.1399268 C23.6319545,21.4196638 24.8429592,20.4378551 24.7093311,19.9511466 Z M3.42070353,10.472917 C3.39982414,10.4351551 3.37894474,10.3931975 3.36224123,10.3512398 C3.34553772,10.3092822 3.34136184,10.2631288 3.32465833,10.2211712 C3.26202015,10.0785152 3.19103022,9.92327195 3.12839205,9.78900752 C3.10333678,9.73026684 3.06575387,9.62117699 3.09080914,9.54984901 C3.09498502,9.54145748 3.11586441,9.54565324 3.12421617,9.55404477 C3.14509556,9.57502359 3.16179907,9.58761088 3.17850259,9.6085897 C3.19103022,9.62956851 3.1952061,9.65054733 3.20773373,9.67152615 C3.23696488,9.71767955 3.27872367,9.76802871 3.30377893,9.82257363 C3.35806535,9.93585924 3.37059299,10.0617321 3.42070353,10.1750178 C3.45411055,10.2463457 3.51257285,10.313478 3.54597988,10.3848059 C3.56268339,10.4225678 3.57521102,10.4687212 3.58773866,10.5106788 C3.59609042,10.5442449 3.59609042,10.5862026 3.59609042,10.6113772 C3.60026629,10.649139 3.59191454,10.6743136 3.5793869,10.6743136 C3.4833417,10.6659221 3.45828643,10.5442449 3.42070353,10.472917 Z M3.83411548,13.5442158 C3.8299396,13.5526073 3.82158784,13.5693904 3.80488433,13.5693904 C3.70048737,13.5651946 3.66708035,13.4057556 3.62114569,13.3302319 C3.58356278,13.2714912 3.55015575,13.204359 3.50839697,13.1414225 C3.4833417,13.0994649 3.4457588,13.0575072 3.42487941,13.0071581 C3.39564826,12.9442216 3.38312062,12.8812852 3.3497136,12.8225445 C3.3288342,12.7931741 3.29960306,12.7679996 3.27872367,12.7386292 C3.22026137,12.6589097 3.16597495,12.5749944 3.13256792,12.4784919 C3.12421617,12.4449258 3.11586441,12.4071639 3.10751265,12.3735978 C3.08663326,12.3148571 3.05740212,12.2477249 3.0406986,12.1847884 C3.03234685,12.1512223 3.02399509,12.0882859 3.03234685,12.0673071 C3.03652272,12.0589155 3.0406986,12.050524 3.04905036,12.050524 C3.13256792,12.0631113 3.20773373,12.2603122 3.24949252,12.3358359 C3.29542718,12.4155554 3.36224123,12.4784919 3.39982414,12.5582114 C3.43323116,12.6295394 3.4457588,12.7218462 3.4833417,12.7931741 C3.51257285,12.8477191 3.56268339,12.8896767 3.59609042,12.9442216 C3.64202508,13.0113538 3.67125623,13.0994649 3.70466325,13.1749886 C3.74224616,13.2589039 3.79653257,13.3260361 3.8299396,13.4057556 C3.83829136,13.4435175 3.84664311,13.5022582 3.83411548,13.5442158 Z M6.07656213,13.0868776 C6.02645159,13.0826818 6.0055722,13.0533115 5.97634105,13.0281369 C5.89282348,12.9693962 5.82600943,12.8686979 5.82183355,12.7260419 C5.82183355,12.7092589 5.82600943,12.7092589 5.83436119,12.7092589 C5.93040639,12.7092589 6.03480334,12.8603064 6.07238625,12.9316343 C6.08491388,12.9526132 6.10996915,13.0113538 6.10579328,13.0491157 C6.1016174,13.0742903 6.08908976,13.0868776 6.07656213,13.0868776 Z M6.74887853,13.1120522 C6.68206448,13.1372267 6.51920523,12.9484174 6.47327057,12.8812852 C6.389753,12.7554123 6.30623543,12.6127563 6.21436611,12.4910792 C6.13084855,12.3777936 6.0431551,12.3022698 6.01809983,12.1092647 C6.01392395,12.0840901 6.00139632,12.0295452 6.01809983,12.0295452 C6.10579328,12.0379367 6.19348672,12.1973757 6.23942138,12.2561164 C6.27282841,12.3022698 6.31041131,12.3442275 6.33964246,12.3903809 C6.38140124,12.4575131 6.40228064,12.5372326 6.4482153,12.600169 C6.50250171,12.6756928 6.57349165,12.7512165 6.63195394,12.8267403 C6.66536097,12.8686979 6.70711975,12.9064598 6.72799914,12.9610047 C6.74052678,12.9945708 6.76975793,13.1036606 6.74887853,13.1120522 Z M9.1040739,14.4253261 C9.0080287,14.4379134 8.89527998,14.2952575 8.84934532,14.232321 C8.83681769,14.2113422 8.78253127,14.0980566 8.7950589,14.0812735 C8.81593829,14.0644905 8.92451113,14.1022523 8.95374228,14.1274269 C9.02473221,14.1861676 9.08319451,14.2658871 9.12077741,14.4043473 C9.12495329,14.4169346 9.11242565,14.4211304 9.1040739,14.4253261 Z" id="Shape"></path>
                        <path d="M62.9562005,27.7384835 L56.4501821,14.1484057 L49.9859225,27.7384835 C49.0212946,29.5972067 47.9480939,29.6391643 47.9480939,29.6391643 L47.8520487,29.7440584 L52.2784797,29.7440584 L52.1740827,29.6391643 C52.1740827,29.6391643 50.9380227,29.3958101 51.7230878,27.7384835 L52.883982,25.3427026 L58.4211966,25.3427026 L59.5445079,27.7384835 C60.3253972,29.3958101 59.0893372,29.6391643 59.0893372,29.6391643 L58.993292,29.7440584 L65.0858984,29.7440584 L64.9815015,29.6391643 C64.9856773,29.6349686 63.8623661,29.6307728 62.9562005,27.7384835 M53.4936603,24.075582 L55.7778657,19.2546498 L57.8574531,24.075582 L53.4936603,24.075582 Z M42.24802,28.3342819 C39.0701766,28.3342819 36.8736646,26.240596 36.8736646,22.4182555 C36.8736646,18.6001107 39.0075384,16.1036315 42.3649446,16.1036315 C45.851803,16.1036315 47.1045664,18.826682 47.1045664,18.826682 L47.188084,18.8980099 L47.188084,15.6840552 C47.188084,15.6840552 45.1001449,14.6602889 42.1310954,14.6602889 C36.7650918,14.6602889 33.395158,17.9833335 33.395158,22.4392343 C33.395158,26.0308078 36.1762929,29.9916085 41.9097738,29.9916085 C44.0728788,29.9916085 46.5951093,29.1272812 46.5951093,29.1272812 L47.7560035,25.1455017 L47.6307271,25.229417 C47.6307271,25.229417 45.747406,28.3342819 42.24802,28.3342819 M119.961115,14.8910559 L120.065512,14.9917542 C120.065512,14.9917542 121.372562,15.3609814 120.387055,16.9008265 C119.902653,17.6476724 118.453623,19.7413584 117.125694,21.7637164 C115.793589,19.7413584 114.361262,17.6350852 113.881036,16.8882393 C112.895529,15.3441983 114.206755,14.9917542 114.206755,14.9917542 L114.3028,14.8910559 L108.21437,14.8910559 L108.314591,14.9917542 C108.314591,14.9917542 109.199877,15.1386059 110.352419,16.8882393 C110.836821,17.6266936 113.308941,21.1007857 114.641046,23.1273395 L114.641046,27.746875 C114.641046,29.5007042 113.651363,29.6517516 113.651363,29.6517516 L113.551142,29.75245 L118.837804,29.75245 L118.733407,29.6517516 C118.733407,29.6517516 117.752076,29.5007042 117.752076,27.746875 C117.752076,27.0084207 117.743724,25.1496975 117.743724,23.1273395 C119.075829,21.1007857 121.552125,17.6434767 122.040703,16.9008265 C123.184893,15.1511932 124.500295,14.9917542 124.500295,14.9917542 L124.604692,14.8910559 L119.961115,14.8910559 Z M109.529771,27.7384835 L103.023753,14.1484057 L96.5636691,27.7384835 C95.5990412,29.5972067 94.5300163,29.6391643 94.5300163,29.6391643 L94.4297952,29.7440584 L98.8478745,29.7440584 L98.7518293,29.6391643 C98.7518293,29.6391643 97.5157693,29.3958101 98.2966586,27.7384835 L99.4575527,25.3427026 L104.998943,25.3427026 L106.122254,27.7384835 C106.90732,29.3958101 105.67126,29.6391643 105.67126,29.6391643 L105.571039,29.7440584 L111.663645,29.7440584 L111.563424,29.6391643 C111.559248,29.6349686 110.435937,29.6307728 109.529771,27.7384835 M100.063055,24.075582 L102.347261,19.2546498 L104.426848,24.075582 L100.063055,24.075582 Z M65.0775467,14.8910559 C63.3320295,14.8910559 63.0898286,14.7232253 63.0898286,14.7232253 L63.0814768,17.6812385 L63.1816979,17.6057148 C63.1816979,17.6057148 63.9751148,16.326007 65.716456,16.326007 L68.1969278,16.326007 L68.1969278,27.746875 C68.1969278,29.5007042 67.2155964,29.6517516 67.2155964,29.6517516 L67.1111994,29.75245 L72.3978613,29.75245 L72.3018161,29.6517516 C72.3018161,29.6517516 71.3079571,29.5007042 71.3079571,27.746875 L71.3204847,16.326007 L73.7424941,16.326007 C75.4880113,16.326007 76.3231869,17.6057148 76.3231869,17.6057148 L76.4275839,17.6812385 L76.4359356,14.7232253 C76.4359356,14.7232253 76.1895588,14.8910559 74.4440417,14.8910559 L65.0775467,14.8910559 Z M92.826258,27.746875 C92.826258,25.9972417 92.8220821,18.6168938 92.8220821,16.8672604 C92.8220821,15.1134313 93.8075894,14.9875584 93.8075894,14.9875584 L93.9078105,14.8910559 L88.6211485,14.8910559 L88.7213696,14.9875584 C88.7213696,14.9875584 89.7110528,15.1134313 89.7110528,16.8672604 C89.7110528,18.6168938 89.7194045,21.1343519 89.7194045,21.1343519 L82.4450245,21.1343519 L82.4450245,16.8672604 C82.4450245,15.1134313 83.4388836,14.9917542 83.4388836,14.9917542 L83.5349288,14.8910559 L78.2524427,14.8910559 L78.3568397,14.9917542 C78.3568397,14.9917542 79.3423469,15.1134313 79.3423469,16.8672604 L79.3423469,27.746875 C79.3423469,29.5007042 78.3568397,29.6517516 78.3568397,29.6517516 L78.2524427,29.75245 L83.5349288,29.75245 L83.4388836,29.6517516 C83.4388836,29.6517516 82.4450245,29.5007042 82.4450245,27.746875 L82.4450245,22.5944775 L89.7194045,22.5944775 L89.7194045,27.746875 C89.7194045,29.5007042 88.7338972,29.6517516 88.7338972,29.6517516 L88.6295003,29.75245 L93.9203381,29.75245 L93.820117,29.6517516 C93.8159411,29.6475559 92.826258,29.4965084 92.826258,27.746875" id="Shape"></path>
                    </g>
                    <path d="M159.302065,27.730092 L152.800222,14.1567973 L146.34849,27.730092 C145.383862,29.5888152 144.319013,29.6307728 144.319013,29.6307728 L144.218792,29.7356669 L148.636871,29.7356669 L148.532475,29.6307728 C148.532475,29.6307728 147.296415,29.3832228 148.085656,27.730092 L149.242374,25.3343111 L154.775413,25.3343111 L155.898724,27.730092 C156.679613,29.379027 155.439377,29.6307728 155.439377,29.6307728 L155.343332,29.7314711 L161.431763,29.7314711 L161.327366,29.6265771 C161.327366,29.6265771 160.20823,29.6181855 159.302065,27.730092 M149.847876,24.075582 L152.127906,19.2588456 L154.211669,24.075582 L149.847876,24.075582 L149.847876,24.075582 Z M138.614764,28.3258904 C135.441096,28.3258904 133.252936,26.2322044 133.252936,22.4182555 C133.252936,18.6001107 135.382634,16.1078273 138.735864,16.1078273 C142.214371,16.1078273 143.467134,18.8308777 143.467134,18.8308777 L143.550652,18.9022057 L143.550652,15.6882509 C143.550652,15.6882509 141.466888,14.6644846 138.493663,14.6644846 C133.136011,14.6644846 129.770253,17.9833335 129.770253,22.4392343 C129.770253,26.026612 132.547212,29.9832169 138.272342,29.9832169 C140.435447,29.9832169 142.953501,29.1188897 142.953501,29.1188897 L144.114395,25.1413059 L143.980767,25.2252212 C143.984943,25.2210254 142.109974,28.3258904 138.614764,28.3258904" id="Shape"></path>
                    <path d="M185.539108,23.8238362 L185.639329,23.9245345 C185.639329,23.9245345 186.624836,24.0713863 186.624836,25.8210196 L186.624836,27.8307903 C186.098676,28.120298 185.426359,28.3049116 184.557777,28.3049116 C181.384109,28.3049116 179.191773,26.2154214 179.191773,22.3972767 C179.191773,18.5833277 181.317295,16.0868484 184.678877,16.0868484 C188.157384,16.0868484 189.410147,18.8098989 189.410147,18.8098989 L189.493665,18.8770311 L189.493665,15.6672721 C189.493665,15.6672721 187.405726,14.6435058 184.436676,14.6435058 C179.0832,14.6435058 175.713266,17.9623547 175.713266,22.4182555 C175.713266,26.0056332 178.494401,29.9622381 184.223706,29.9622381 C185.021299,29.9622381 185.877354,29.8321695 186.624836,29.6685347 L186.624836,29.681122 C188.524861,29.3202863 189.719162,28.7035091 189.719162,28.7035091 L189.73169,25.8168239 C189.73169,24.0671905 190.721373,23.9203388 190.721373,23.9203388 L190.821594,23.8238362 L185.539108,23.8238362 L185.539108,23.8238362 Z" id="Path"></path>
                    <path d="M170.802434,27.5077165 C171.554092,28.9132973 172.28487,29.7356669 174.022036,29.7356669 L174.218302,29.7356669 L176.247779,29.7356669 L176.147558,29.6307728 C176.147558,29.6307728 175.028422,29.6223813 174.122257,27.7342877 L171.136504,22.1665097 C171.449695,22.0406368 171.929921,21.8098698 172.410147,21.3063782 C173.103342,20.5721196 173.454116,19.623877 173.454116,18.6588514 C173.454116,17.1651596 172.660699,16.0113247 171.637609,15.4448966 C170.677157,14.8952516 169.733409,14.8742728 168.292731,14.8742728 L163.599043,14.8742728 L162.028913,14.8742728 L162.129134,14.9749711 C162.129134,14.9749711 163.110466,15.1218229 163.110466,16.8672604 L163.110466,27.7175047 C163.110466,29.4629423 162.129134,29.6307728 162.129134,29.6307728 L162.028913,29.7356669 L165.256867,29.7356669 L167.307223,29.7356669 L167.207002,29.6307728 C167.207002,29.6307728 166.221495,29.4797253 166.221495,27.7384835 L166.217319,22.9469217 C166.614028,22.9679005 167.010736,22.9888793 167.21953,22.9888793 C167.637118,22.9888793 167.971188,22.9679005 168.309434,22.9469217 L170.802434,27.5077165 Z M168.59757,21.2895951 C168.200861,21.3735104 167.825032,21.3944892 167.449203,21.3944892 L166.213143,21.3944892 L166.213143,16.4770544 L167.616238,16.4770544 C168.238444,16.4770544 168.927464,16.4770544 169.578901,16.963763 C169.892092,17.19453 170.476715,17.7609581 170.476715,18.9399676 C170.476715,19.7371626 170.125941,20.9329552 168.59757,21.2895951" id="Shape"></path>
                    <path d="M205.829701,16.0868484 C204.451661,15.2099339 202.693616,14.7022465 200.647436,14.6812677 C198.601255,14.7022465 196.843211,15.2099339 195.465171,16.0868484 C193.289538,17.4630589 192.045126,19.7497499 192.045126,22.4560173 C192.045126,24.9063432 193.348,27.5370869 196.008035,28.9510591 C196.375512,29.14826 196.768045,29.3202863 197.185633,29.467138 C198.166964,29.8069949 199.286099,30 200.551391,30 C200.580622,30 200.609853,29.9958042 200.64326,29.9958042 C200.672491,29.9958042 200.705898,30 200.730953,30 C201.996244,30 203.119556,29.8069949 204.100887,29.467138 C204.518475,29.3202863 204.915183,29.14826 205.282661,28.9510591 C207.938519,27.5370869 209.241404,24.910539 209.241404,22.4560173 C209.245569,19.7497499 208.005333,17.4630589 205.829701,16.0868484 M195.523633,22.4392343 C195.523633,18.7595498 197.502999,16.3176154 200.647436,16.1413934 C203.791872,16.3176154 205.767063,18.7595498 205.767063,22.4392343 C205.767063,26.1524849 203.683299,28.2293878 200.647436,28.3342819 C197.607396,28.2293878 195.523633,26.1524849 195.523633,22.4392343" id="Shape"></path>
                </g>
            </g>
        </g>
    </g>
</svg>